<svg fill="none" height="24" viewBox="0 0 24 24" width="24" xmlns="http://www.w3.org/2000/svg"><g clip-rule="evenodd" fill="grey" fill-rule="evenodd"><path d="m2 7c0-2.76142 2.23858-5 5-5h10c2.7614 0 5 2.23858 5 5v10c0 2.7614-2.2386 5-5 5h-10c-2.76142 0-5-2.2386-5-5zm5-3c-1.65685 0-3 1.34315-3 3v10c0 1.6569 1.34315 3 3 3h10c1.6569 0 3-1.3431 3-3v-10c0-1.65685-1.3431-3-3-3z"/><path d="m10.7 8.00001c0 .71797.582 1.3 1.3 1.3.7179 0 1.3-.58203 1.3-1.3s-.5821-1.3-1.3-1.3c-.718 0-1.3.58203-1.3 1.3z"/><path d="m10.7 16c0 .718.582 1.3 1.3 1.3.7179 0 1.3-.582 1.3-1.3s-.5821-1.3-1.3-1.3c-.718 0-1.3.582-1.3 1.3z"/><path d="m10.7 12c0 .718.582 1.3 1.3 1.3.7179 0 1.3-.582 1.3-1.3s-.5821-1.3-1.3-1.3c-.718 0-1.3.582-1.3 1.3z"/></g></svg>
